<svg width="128" height="128" viewBox="0 0 128 128" fill="none" xmlns="http://www.w3.org/2000/svg">
<rect width="128" height="128" rx="15" fill="white"/>
<path d="M42.6667 88.5867V81.9733L74.6667 63.52V38.56L48.0001 53.9733L21.3334 38.56V69.3333L16.0001 72.4267L10.6667 69.3333V26.6667L16.3734 23.36L48.0001 41.6533L68.9601 29.5467L79.6267 23.36L85.3334 26.6667V69.6533L58.2401 85.3333L79.8401 97.76L106.667 82.2933V58.6667L112 55.5733L117.333 58.6667V88.4267L79.8401 110.08L42.6667 88.5867ZM117.333 52L112 55.0933L106.667 52V45.76L112 42.6667L117.333 45.76V52Z" fill="black"/>
</svg>
