<svg width="128" height="128" viewBox="0 0 128 128" fill="none" xmlns="http://www.w3.org/2000/svg">
<g clip-path="url(#clip0_802_8)">
<rect width="128" height="128" rx="64" fill="white"/>
<path d="M94.996 120.02C94.52 120.272 94.56 120.352 95.016 120.12C95.164 120.06 95.288 119.976 95.396 119.876C95.396 119.792 95.396 119.792 94.996 120.02ZM95.956 119.5C95.728 119.688 95.728 119.688 96 119.564C96.144 119.48 96.272 119.4 96.272 119.376C96.272 119.268 96.208 119.292 95.956 119.5ZM96.58 119.124C96.352 119.312 96.352 119.312 96.624 119.188C96.772 119.104 96.896 119.016 96.896 118.996C96.896 118.896 96.832 118.916 96.58 119.124ZM97.212 118.752C96.984 118.94 96.984 118.94 97.248 118.812C97.396 118.732 97.52 118.648 97.52 118.624C97.52 118.524 97.456 118.544 97.212 118.752ZM98.064 118.188C97.628 118.48 97.476 118.668 97.876 118.46C98.144 118.296 98.6 117.936 98.52 117.936C98.348 118 98.204 118.108 98.06 118.188H98.064ZM59.812 0.0441172C59.52 0.0641172 58.644 0.144117 57.876 0.208117C39.684 1.85612 22.664 11.6481 11.876 26.7321C5.912 35.0001 2.04 44.6041 0.58 54.6881C0.064 58.2081 0 59.2481 0 64.0201C0 68.7881 0.064 69.8121 0.58 73.3321C4.064 97.3761 21.168 117.56 44.352 125.04C48.524 126.372 52.896 127.292 57.876 127.856C59.812 128.064 68.184 128.064 70.12 127.856C78.728 126.896 85.996 124.772 93.188 121.104C94.292 120.544 94.5 120.396 94.352 120.272C90.832 115.628 87.376 110.98 83.916 106.292L73.688 92.4801L60.876 73.5001C56.604 67.1481 52.316 60.8121 47.96 54.5241C47.916 54.5241 47.86 62.9601 47.836 73.2481C47.792 91.2681 47.792 92.0001 47.564 92.4161C47.336 92.9161 46.96 93.3321 46.46 93.5641C46.064 93.7521 45.708 93.7921 43.816 93.7921H41.652L41.088 93.4401C40.736 93.2121 40.444 92.8961 40.256 92.5241L39.984 91.9601L40.004 66.8761L40.048 41.7921L40.444 41.2921C40.696 40.9841 41.008 40.7321 41.36 40.5441C41.884 40.2921 42.092 40.2521 44.256 40.2521C46.796 40.2521 47.216 40.3521 47.884 41.0841C53.068 48.8121 58.236 56.5601 63.32 64.3321C71.636 76.9401 82.988 94.1441 88.568 102.584L98.716 117.94L99.216 117.608C104.092 114.356 108.528 110.484 112.356 106.068C120.42 96.8361 125.652 85.4801 127.424 73.3601C127.94 69.8401 128.004 68.7961 128.004 64.0281C128.004 59.2561 127.94 58.2361 127.424 54.7161C123.94 30.6721 106.836 10.4881 83.652 3.00412C79.316 1.63212 74.856 0.696117 70.34 0.216117C69.128 0.0921172 60.856 -0.0558828 59.816 0.0521172L59.812 0.0441172ZM86 38.7521C86.604 39.0401 87.06 39.5841 87.268 40.2081C87.376 40.5441 87.396 47.5001 87.376 63.1681L87.332 85.6641L83.376 79.5841L79.396 73.5001V57.1681C79.396 46.5801 79.44 40.6441 79.496 40.3521C79.684 39.6841 80.14 39.1241 80.748 38.7721C81.244 38.5201 81.436 38.5001 83.416 38.5001C85.268 38.5001 85.584 38.5201 86 38.7521Z" fill="black"/>
</g>
<defs>
<clipPath id="clip0_802_8">
<rect width="128" height="128" rx="64" fill="white"/>
</clipPath>
</defs>
</svg>
